<svg xmlns="http://www.w3.org/2000/svg" viewBox="0 0 234.78 63.1"><defs><style>.cls-1{fill:#6b3fb9;}.cls-2{fill:#0c0c0c;}.cls-3{fill:#fcfcfc;}</style></defs><g id="レイヤー_2" data-name="レイヤー 2"><g id="レイヤー_1-2" data-name="レイヤー 1"><path class="cls-1" d="M16.78,30.05V17.18H29.53V7.33C27.47,5.85,26.4,3.11,24.08.53c4.8-.92,9-.21,13.11-.53.93.71.42,1.62.67,2.86-.45.34-1.14.8-1.75,1.35a7.21,7.21,0,0,0-2.38,6c.11,2.15,0,4.3,0,6.64h10.7c.57,2.21.23,4.34.29,6.43s0,4.28,0,6.59H55.3l7-4.27c.82,2.4.38,4.52.46,6.58s0,3.89,0,5.86c-3.1-.21-4.63-2.15-6.41-3.91H44.91V44.92h-11V57.7c1.41,1.4,3.06,2.75,3.66,5.14-1.84.48-3.95.15-6,.19s-3.88-.06-6.41-.12c1.77-2.42,2.68-4.64,4.51-6.23V45.15H16.83v-11H6.14c-1.48,1.52-3.21,3.47-6.14,4V25.24c1.41.55,2.94,1,3.76,2.36s2.58,1.3,3.5,2.45Z"/><path class="cls-2" d="M202.75,11.33c.92-.36,1.53-.32,2.08-.81A12.87,12.87,0,0,1,214.38,7c4.31.22,8.64,0,12.76,0l7.52,4.41v7.43h-5.57l-1.15-1.15c-.77-1.24.38-3-.54-4.59H208.93V47c6,.07,12.29,0,18.68,0V36.14h-6.74V30.25h13.69c.43,6,.07,12.24.22,18.26-1.95,2.1-4.46,2.88-6.68,4.54H213.39c-4.57,0-7.09-1.07-10.64-4.5Z"/><path class="cls-2" d="M184.37,7.05c1.26,2.43,4.42,2.23,6.24,4.39v6.4h-5.8v-4.6h-17V26.88h15.92c2.65,1.7,5.47,2.32,6.95,4.76V49.58c-.14.15-.24.33-.38.38-2.19.79-4.13,2.43-6.25,2.93-2.84.66-6,.16-9,.16h-7.77c-2.35-1.91-5.45-2.14-7.52-4.42V43.45l1.26-1.26h5.33c.88,1.38-.19,3.14.64,4.74h17.48V34.32l-1.43-1.2h-15.9c-1.31-2.27-4.18-2.44-6.26-4.26V11.58l7.52-4.53Z"/><path class="cls-2" d="M88.84,32.88v14h19.67v5.9c-.09.07-.21.25-.34.25H83V7.21h24.42l1.21,1.21V13H90.32l-1.39,1.4V25.73l1.42,1.4h14.28v4.55l-1.2,1.2Z"/><path class="cls-2" d="M123.91,47h18.68V42.3h7v6.4A7.12,7.12,0,0,1,148.28,50c-5.3,3.07-5.31,3.06-12.2,3.06H124.52c-2.11-1.5-5-2-6.68-4.6v-37l7.52-4.41c3.73,0,7.71.2,11.67,0a14,14,0,0,1,11,3.74,4.63,4.63,0,0,0,1.64.61v7.58h-5.5C142,17.6,143,15.4,142.7,13.3H123.91Z"/><path class="cls-3" d="M29.77,30.05H20.82c-.15-2.86,0-5.75-.09-8.82h8.93C29.88,24.05,29.68,27.05,29.77,30.05Z"/><path class="cls-3" d="M32.84,29.89V21.21H40.5v8.68Z"/><path class="cls-3" d="M29.67,34.21v7.68H21V34.21Z"/><path class="cls-3" d="M32.92,34.13h7.66V42H34.16l-1.24-1.24Z"/></g></g></svg>